<svg xmlns="http://www.w3.org/2000/svg" fill="none" viewBox="0 0 177 215"><g clip-path="url(#a)"><path fill="#A0ADBA" d="M87.8778 214.499c37.2372 0 67.4252-2.856 67.4252-6.378 0-3.523-30.188-6.379-67.4252-6.379-37.2376 0-67.4247 2.856-67.4247 6.379 0 3.522 30.1871 6.378 67.4247 6.378Z"/><path fill="#FFD600" d="M17.1685 157.954H158.337c5.218 0 8.638-5.429 6.393-10.116L96.8442 6.9958c-2.5275-5.251-9.9762-5.3845-12.6673-.2077L10.8795 147.615c-2.4532 4.703.9664 10.339 6.289 10.339Z"/><path fill="#4D545C" d="M158.338 160.448H17.1697c-3.3749 0-6.4377-1.721-8.1772-4.599-1.7544-2.877-1.8584-6.378-.3122-9.359L81.9629 5.6327c1.6949-3.2189 4.9955-5.162 8.6529-5.1324 3.6426.0594 6.8986 2.136 8.4746 5.429L166.976 146.771c1.427 2.982 1.234 6.423-.535 9.212-1.77 2.789-4.788 4.465-8.103 4.465ZM90.4523 5.4547c-1.7395 0-3.256.9196-4.0738 2.4623L13.096 148.774c-.7434 1.439-.6988 3.115.1487 4.509.8474 1.38 2.3044 2.21 3.9399 2.21H158.338c1.606 0 3.033-.786 3.895-2.15.863-1.365.952-2.982.253-4.435L94.6003 8.0653c-.7731-1.602-2.2896-2.581-4.0737-2.6106h-.0892.0149Z"/><path fill="#DE3F3B" d="M100.5 51.2017c0 9.2411 7.508 16.7319 16.771 16.7319 2.884 0 5.605-.7268 7.984-2.0173l-14.511-30.1116c-6.007 2.5365-10.229 8.4846-10.229 15.4118l-.015-.0148Z"/><path fill="#4D545C" d="M117.269 70.4116c-10.615 0-19.2534-8.6181-19.2534-19.2091 0-7.7281 4.6094-14.6701 11.7454-17.6813l2.186-.9196 16.562 34.3835-2.081 1.1274c-2.795 1.513-5.962 2.314-9.159 2.314v-.0149Zm-7.671-31.2241c-4.074 2.581-6.617 7.0904-6.617 12.015 0 7.8617 6.408 14.24 14.273 14.24 1.576 0 3.137-.267 4.624-.7713l-12.295-25.4985.015.0148Z"/><path fill="#DE3F3B" d="M87.6647 48.2922c0-9.2709-6.5418-17.0138-15.2691-18.8977L55.1641 62.5173c3.4493 3.1743 8.0434 5.1323 13.1132 5.1323 10.7047 0 19.3874-8.6626 19.3874-19.3426v-.0148Z"/><path fill="#4D545C" d="M68.2768 70.1131c-5.4862 0-10.7344-2.047-14.7933-5.785l-1.3976-1.2905 18.986-36.4751 1.8585.4005c9.991 2.1508 17.2315 11.125 17.2315 21.3154 0 12.0299-9.8126 21.8198-21.8702 21.8198l-.0149.0149Zm-9.9762-8.2325c2.8992 2.1211 6.3782 3.2781 9.9762 3.2781 9.322 0 16.9045-7.5649 16.9045-16.8654 0-7.2535-4.7428-13.6912-11.5076-15.9755l-15.388 29.5628h.0149Z"/><path fill="#DE3F3B" d="M38.9718 130.324c0-7.342-4.2224-13.676-10.3776-16.762l-17.3208 33.286c2.6465 1.424 5.6795 2.225 8.8909 2.225 10.3925 0 18.8075-8.395 18.8075-18.764v.015Z"/><path fill="#4D545C" d="M20.1665 151.565c-3.5088 0-6.9878-.876-10.0654-2.522l-2.1558-1.157 19.5807-37.632 2.1855 1.098c7.2406 3.634 11.7455 10.902 11.7455 18.971 0 11.719-9.5451 21.242-21.2905 21.242Zm-5.4713-5.904c1.7544.623 3.598.934 5.4713.934 8.9949 0 16.3247-7.297 16.3247-16.286 0-5.355-2.587-10.25-6.8986-13.276l-14.8974 28.613v.015Z"/><path fill="#DE3F3B" d="M115.945 115.918c0 15.59 12.668 28.213 28.279 28.213 6.051 0 11.641-1.913 16.235-5.132l-24.175-50.1513c-11.745 3.4264-20.339 14.2403-20.339 27.0703Z"/><path fill="#4D545C" d="M144.238 146.622c-16.964 0-30.761-13.765-30.761-30.69 0-13.543 9.099-25.6468 22.137-29.4441l2.022-.5934 26.004 53.9335-1.725 1.202c-5.203 3.649-11.314 5.592-17.662 5.592h-.015Zm-9.233-54.72c-9.857 3.7677-16.578 13.365-16.578 24.015 0 14.196 11.568 25.736 25.796 25.736 4.624 0 9.084-1.216 13.039-3.545L134.99 91.902h.015Z"/><path fill="#C0413E" d="M98.1667 77.8281c-5.4713 0-9.9167 4.4352-9.9167 9.8938 0 5.4587 4.4454 9.8938 9.9167 9.8938s9.9163-4.4351 9.9163-9.8938c0-5.4586-4.445-9.8938-9.9163-9.8938Z"/><path fill="#4D545C" d="M98.1652 100.078c-6.8391 0-12.3996-5.5478-12.3996-12.3711 0-6.8233 5.5605-12.371 12.3996-12.371 6.8388 0 12.3998 5.5477 12.3998 12.371 0 6.8233-5.561 12.3711-12.3998 12.3711Zm0-19.7729c-4.0886 0-7.4338 3.3226-7.4338 7.4166 0 4.094 3.3304 7.4167 7.4338 7.4167 4.1038 0 7.4338-3.3227 7.4338-7.4167 0-4.094-3.33-7.4166-7.4338-7.4166Z"/><path fill="#FFD600" d="M149.102 171.396H27.6777c-10.5709 0-19.209-8.633-19.209-19.165 0-10.546 8.653-19.165 19.209-19.165H149.102c10.571 0 19.209 8.633 19.209 19.165 0 10.547-8.653 19.165-19.209 19.165Z"/><path fill="#49535C" d="M149.1 173.873H27.6763c-11.9685 0-21.692-9.715-21.692-21.641 0-11.926 9.7384-21.642 21.692-21.642H149.1c11.969 0 21.692 9.716 21.692 21.642s-9.738 21.641-21.692 21.641ZM27.6763 135.529c-9.218 0-16.7261 7.491-16.7261 16.688 0 9.196 7.5081 16.687 16.7261 16.687H149.1c9.218 0 16.726-7.491 16.726-16.687 0-9.197-7.508-16.688-16.726-16.688H27.6763Z"/><path fill="#54320E" d="M149.102 161.293H27.6777c-8.8165 0-16.28-6.007-18.5102-14.121-.446 1.617-.6988 3.293-.6988 5.043 0 10.547 8.653 19.165 19.209 19.165H149.102c10.571 0 19.209-8.633 19.209-19.165 0-1.75-.253-3.441-.699-5.043-2.23 8.114-9.694 14.121-18.51 14.121Z" opacity=".2"/><g fill="#54320E" opacity=".2"><path d="M35.2261 145.112c0 2.077-1.68 3.753-3.7615 3.753-2.0814 0-3.7615-1.676-3.7615-3.753 0-2.076 1.6801-3.753 3.7615-3.753 2.0815 0 3.7615 1.677 3.7615 3.753ZM62.2891 151.802c0 2.003 1.6354 3.634 3.6425 3.634 2.0072 0 3.6426-1.631 3.6426-3.634 0-2.002-1.6354-3.634-3.6426-3.634-2.0071 0-3.6425 1.632-3.6425 3.634ZM100.863 143.466c0 1.172-.9515 2.106-2.1112 2.106-1.1596 0-2.1112-.949-2.1112-2.106s.9516-2.107 2.1112-2.107c1.1597 0 2.1112.95 2.1112 2.107ZM146.734 151.907c0 2.329 1.903 4.228 4.238 4.228 2.334 0 4.237-1.899 4.237-4.228 0-2.329-1.903-4.227-4.237-4.227-2.335 0-4.238 1.898-4.238 4.227ZM128.621 148.747c0-2.002-1.635-3.634-3.642-3.634-2.008 0-3.643 1.632-3.643 3.634 0 2.003 1.635 3.635 3.643 3.635 2.007 0 3.642-1.632 3.642-3.635Z"/></g><path fill="#4D545C" d="M62.6108 117.188c5.0514-5.04 5.0514-13.211 0-18.2507-5.0514-5.0397-13.2412-5.0397-18.2926 0-5.0514 5.0397-5.0514 13.2107 0 18.2507 5.0514 5.039 13.2412 5.039 18.2926 0Z"/><path fill="#fff" d="M46.2207 108.974c2.3639 2.788 5.1888 1.542 7.9839-.816 2.7951-2.359 4.5198-4.925 2.1558-7.713-2.364-2.789-6.5418-3.145-9.3517-.7865-2.7952 2.3585-3.152 6.5265-.788 9.3305v-.015Z"/><path fill="#4D545C" d="M120.895 120.635c6.951-1.643 11.251-8.597 9.604-15.532-1.647-6.9355-8.618-11.2255-15.569-9.5823-6.951 1.6433-11.251 8.5973-9.604 15.5323 1.647 6.936 8.617 11.226 15.569 9.582Z"/><path fill="#fff" d="M110.682 108.974c2.364 2.788 5.188 1.542 7.984-.816 2.795-2.359 4.519-4.925 2.155-7.713-2.364-2.789-6.541-3.145-9.351-.7865-2.796 2.3585-3.152 6.5265-.788 9.3305v-.015Z"/><path fill="#4D545C" d="M98.2881 123.05c0-5.903-5.5307-10.695-12.355-10.695-6.8242 0-12.355 4.792-12.355 10.695 0 5.904 5.5308 1.335 12.355 1.335 6.8243 0 12.355 4.569 12.355-1.335Z"/><path fill="#DE3F3B" d="M91.548 121.925c0-1.498-2.3343-2.714-5.2037-2.714-2.8695 0-5.2037 1.216-5.2037 2.714 0 1.499 2.3342.905 5.2037.905 2.8694 0 5.2037.594 5.2037-.905Z"/><path fill="#fff" d="M49.4766 123.676c0 2.462 2.0071 4.465 4.4751 4.465 2.468 0 4.4752-2.003 4.4752-4.465 0-2.463-2.0072-4.465-4.4752-4.465s-4.4751 2.002-4.4751 4.465ZM113.914 123.676c0 2.462 2.007 4.465 4.475 4.465 2.468 0 4.475-2.003 4.475-4.465 0-2.463-2.007-4.465-4.475-4.465-2.468 0-4.475 2.002-4.475 4.465Z"/><path fill="#4D545C" d="M23.6509 124.805c-1.6503 0-10.3925-.341-16.7112-7.432-5.739-6.423-7.6569-16.227-5.6943-29.162.2081-1.3498 1.4719-2.2843 2.8248-2.0766 1.353.2076 2.2896 1.4685 2.0815 2.8183-1.7247 11.4063-.223 19.8473 4.49 25.1273 5.3226 5.963 13.0241 5.77 13.0835 5.77 1.353 0 2.5275 1.024 2.5721 2.389.0446 1.364-1.0258 2.521-2.3937 2.566h-.2527ZM153.609 124.802h-.253c-1.368-.045-2.438-1.202-2.394-2.567.045-1.335 1.145-2.388 2.483-2.388h.075c.118 0 7.864.134 13.143-5.814 4.668-5.266 6.17-13.706 4.445-25.0686-.208-1.3498.728-2.6107 2.081-2.8183 1.368-.2077 2.617.7268 2.825 2.0766 1.963 12.9343.045 22.7393-5.694 29.1623-6.319 7.09-15.061 7.431-16.711 7.431v-.014ZM67.2573 209.455c-1.011 0-1.9626-.623-2.3342-1.616-3.9251-10.562-2.5424-33.494-2.4829-34.473.0892-1.365 1.2637-2.433 2.6315-2.314 1.3678.089 2.4086 1.261 2.3194 2.625 0 .223-1.3827 22.873 2.1855 32.441.4758 1.29-.1784 2.714-1.4719 3.189-.2825.104-.5798.148-.8623.148h.0149ZM99.6378 209.455c-.2825 0-.5798-.044-.8623-.148-1.2935-.475-1.9477-1.899-1.4719-3.189 3.5684-9.568 2.2004-32.203 2.1855-32.441-.0892-1.364.9519-2.536 2.3189-2.625 1.398-.119 2.558.949 2.632 2.314.06.979 1.442 23.911-2.483 34.473-.372.993-1.323 1.616-2.334 1.616h.0148Z"/><g fill="#F4D532"><path d="M25.2968 34.7808c-.4906 0-.9664-.178-1.3381-.5488l-8.534-8.5144c-.7434-.7416-.7434-1.9431 0-2.6848s1.9477-.7417 2.6911 0l8.534 8.5143c.7434.7417.7434 1.9432 0 2.6849-.3717.3708-.8623.5488-1.3381.5488h-.0149Z"/><path d="M16.7784 34.7808c-.4906 0-.9664-.178-1.3381-.5488-.7433-.7417-.7433-1.9432 0-2.6849l8.5341-8.5143c.7434-.7417 1.9476-.7417 2.691 0 .7434.7417.7434 1.9432 0 2.6848l-8.534 8.5144c-.3717.3708-.8623.5488-1.3381.5488h-.0149Z"/></g><g fill="#A0ADBA"><path d="M153.93 196.819c-.491 0-.967-.178-1.338-.564l-8.534-8.514c-.744-.742-.744-1.943 0-2.685.743-.741 1.947-.741 2.691 0l8.534 8.515c.743.741.743 1.943 0 2.684-.372.371-.863.564-1.338.564h-.015Z"/><path d="M145.411 196.819c-.49 0-.966-.178-1.338-.564-.743-.741-.743-1.943 0-2.684l8.534-8.515c.744-.741 1.948-.741 2.691 0 .744.742.744 1.943 0 2.685l-8.534 8.514c-.371.371-.862.564-1.338.564h-.015Z"/></g><path fill="#DE3F3B" d="M144.477 55.9761c-3.539 0-6.438-2.8776-6.438-6.408 0-3.5303 2.884-6.4079 6.438-6.4079 3.553 0 6.423 2.8776 6.423 6.4079 0 3.5304-2.885 6.408-6.423 6.408Zm0-9.1225c-1.502 0-2.721 1.2164-2.721 2.6997s1.219 2.6997 2.721 2.6997c1.501 0 2.706-1.2164 2.706-2.6997s-1.219-2.6997-2.706-2.6997Z"/></g><defs><clipPath id="a"><path fill="#fff" d="M.5.5h176v214H.5z"/></clipPath></defs></svg>
