<svg xmlns="http://www.w3.org/2000/svg" xml:space="preserve" style="enable-background:new 0 0 256.62 257.4" viewBox="0 0 256.62 257.4"><path d="M128.07 257.4C58.63 258.06-.85 200.35.01 127.31.86 54.88 60.25-2.15 133.2.23c63.53 2.07 124.76 55.62 123.72 131.29-.95 69.5-58.59 126.25-128.85 125.88zm103.84-110.57c-.81 1.53-1.67 3.05-2.43 4.61-6.12 12.56-14.09 23.84-24.45 33.19-28.53 25.78-62.13 33.4-98.98 24.9-35.88-8.28-61.07-38.79-62.95-73.77-2.94-54.54 43.74-97.51 97.76-89.22 47.86 7.34 61.32 55.38 46.96 86.7-10.45 22.78-37.32 37.31-62.2 33.53-17.24-2.61-29.16-12-33.62-29.19-3.98-15.35.76-28.33 12.92-38.36 7.7-6.35 16.54-9.57 26.74-8.02v19.01c-5.87 3.1-11.37 4.95-15.46 8.45-4.72 4.04-4.58 10.23-2.51 15.83 2.54 6.82 8.28 9.74 15.11 10.64 19.79 2.61 37.19-9.94 42.02-30.21 4.29-18-7.04-38.4-24.48-44.7-13.72-4.96-27.01-2.43-40.08 1.99-21.51 7.27-35.96 21.65-40.05 44.36-4.35 24.21 1.66 45.51 21.98 60.9 15.63 11.84 33.83 15.23 53.01 13.04 32.03-3.66 55.55-20.17 68.85-49.37 13.66-30.01 9.87-59.3-10.02-85.3-22.9-29.92-54.83-38.04-90.61-32.11C57.1 32.41 19.47 79.94 21.7 131.67c2.85 66.22 52 102.79 107.69 104.28 37.12.99 65.51-17.28 87.12-46.5 9.26-12.48 14.15-26.89 15.4-42.62z" style="fill:#e52b50"/></svg>